<svg width="24" height="24" viewBox="0 0 24 24" fill="none" xmlns="http://www.w3.org/2000/svg">
<rect x="2" y="2" width="9" height="2" fill="black"/>
<rect x="2" y="13" width="9" height="2" fill="black"/>
<rect x="13" y="2" width="9" height="2" fill="black"/>
<rect x="2" y="9" width="9" height="2" fill="black"/>
<rect x="2" y="20" width="9" height="2" fill="black"/>
<rect x="13" y="9" width="9" height="2" fill="black"/>
<rect x="9" y="4" width="2" height="5" fill="black"/>
<rect x="9" y="15" width="2" height="5" fill="black"/>
<rect x="20" y="4" width="2" height="5" fill="black"/>
<rect x="2" y="4" width="2" height="5" fill="black"/>
<rect x="2" y="15" width="2" height="5" fill="black"/>
<rect x="13" y="4" width="2" height="5" fill="black"/>
<rect x="17" y="14" width="2" height="8" fill="black"/>
<rect x="22" y="17" width="2" height="8" transform="rotate(90 22 17)" fill="black"/>
</svg>
