<svg xmlns="http://www.w3.org/2000/svg" width="24" height="24" viewBox="0 0 24 24" shape-rendering="crispEdges">
  <!-- Pixel-art chain link icon -->
  <!-- Top ring outline (#56a0e7) -->
  <rect x="8" y="0" width="2" height="2" fill="#56a0e7"/>
  <rect x="10" y="0" width="2" height="2" fill="#56a0e7"/>
  <rect x="6" y="2" width="2" height="2" fill="#56a0e7"/>
  <rect x="12" y="2" width="2" height="2" fill="#56a0e7"/>
  <rect x="4" y="4" width="2" height="2" fill="#56a0e7"/>
  <rect x="14" y="4" width="2" height="2" fill="#56a0e7"/>
  <rect x="4" y="6" width="2" height="2" fill="#56a0e7"/>
  <rect x="14" y="6" width="2" height="2" fill="#56a0e7"/>
  <rect x="4" y="8" width="2" height="2" fill="#56a0e7"/>
  <rect x="14" y="8" width="2" height="2" fill="#56a0e7"/>
  <!-- Top ring fill (#d5ebff) -->
  <rect x="8" y="2" width="2" height="2" fill="#d5ebff"/>
  <rect x="10" y="2" width="2" height="2" fill="#d5ebff"/>
  <rect x="6" y="4" width="2" height="2" fill="#d5ebff"/>
  <rect x="8" y="4" width="2" height="2" fill="#d5ebff"/>
  <rect x="10" y="4" width="2" height="2" fill="#d5ebff"/>
  <rect x="12" y="4" width="2" height="2" fill="#d5ebff"/>
  <rect x="6" y="6" width="2" height="2" fill="#d5ebff"/>
  <rect x="8" y="6" width="2" height="2" fill="#d5ebff"/>
  <rect x="10" y="6" width="2" height="2" fill="#d5ebff"/>
  <rect x="12" y="6" width="2" height="2" fill="#d5ebff"/>
  <rect x="6" y="8" width="2" height="2" fill="#d5ebff"/>
  <rect x="8" y="8" width="2" height="2" fill="#d5ebff"/>
  <rect x="10" y="8" width="2" height="2" fill="#d5ebff"/>
  <rect x="12" y="8" width="2" height="2" fill="#d5ebff"/>
  <!-- Middle overlap zone (#a9cff3) -->
  <rect x="6" y="10" width="2" height="2" fill="#a9cff3"/>
  <rect x="8" y="10" width="2" height="2" fill="#a9cff3"/>
  <rect x="10" y="10" width="2" height="2" fill="#a9cff3"/>
  <rect x="12" y="10" width="2" height="2" fill="#a9cff3"/>
  <rect x="6" y="12" width="2" height="2" fill="#a9cff3"/>
  <rect x="8" y="12" width="2" height="2" fill="#a9cff3"/>
  <rect x="10" y="12" width="2" height="2" fill="#a9cff3"/>
  <rect x="12" y="12" width="2" height="2" fill="#a9cff3"/>
  <!-- Bottom ring outline (#56a0e7) -->
  <rect x="4" y="10" width="2" height="2" fill="#56a0e7"/>
  <rect x="14" y="10" width="2" height="2" fill="#56a0e7"/>
  <rect x="4" y="12" width="2" height="2" fill="#56a0e7"/>
  <rect x="14" y="12" width="2" height="2" fill="#56a0e7"/>
  <rect x="4" y="14" width="2" height="2" fill="#56a0e7"/>
  <rect x="14" y="14" width="2" height="2" fill="#56a0e7"/>
  <rect x="4" y="16" width="2" height="2" fill="#56a0e7"/>
  <rect x="14" y="16" width="2" height="2" fill="#56a0e7"/>
  <rect x="4" y="18" width="2" height="2" fill="#56a0e7"/>
  <rect x="14" y="18" width="2" height="2" fill="#56a0e7"/>
  <rect x="6" y="20" width="2" height="2" fill="#56a0e7"/>
  <rect x="12" y="20" width="2" height="2" fill="#56a0e7"/>
  <rect x="8" y="22" width="2" height="2" fill="#56a0e7"/>
  <rect x="10" y="22" width="2" height="2" fill="#56a0e7"/>
  <!-- Bottom ring fill (#d5ebff) -->
  <rect x="6" y="14" width="2" height="2" fill="#d5ebff"/>
  <rect x="8" y="14" width="2" height="2" fill="#d5ebff"/>
  <rect x="10" y="14" width="2" height="2" fill="#d5ebff"/>
  <rect x="12" y="14" width="2" height="2" fill="#d5ebff"/>
  <rect x="6" y="16" width="2" height="2" fill="#d5ebff"/>
  <rect x="8" y="16" width="2" height="2" fill="#d5ebff"/>
  <rect x="10" y="16" width="2" height="2" fill="#d5ebff"/>
  <rect x="12" y="16" width="2" height="2" fill="#d5ebff"/>
  <rect x="6" y="18" width="2" height="2" fill="#d5ebff"/>
  <rect x="8" y="18" width="2" height="2" fill="#d5ebff"/>
  <rect x="10" y="18" width="2" height="2" fill="#d5ebff"/>
  <rect x="12" y="18" width="2" height="2" fill="#d5ebff"/>
  <rect x="8" y="20" width="2" height="2" fill="#d5ebff"/>
  <rect x="10" y="20" width="2" height="2" fill="#d5ebff"/>
</svg>
