<svg width="24" height="24" viewBox="0 0 24 24" fill="none" xmlns="http://www.w3.org/2000/svg">
<g clip-path="url(#clip0_1228_83039)">
<rect x="12" width="2" height="2" fill="#FF312B"/>
<rect x="14" width="2" height="2" fill="#FF312B"/>
<rect x="16" width="2" height="2" fill="#FF312B"/>
<rect x="18" y="2" width="2" height="2" fill="#FF312B"/>
<rect x="20" y="4" width="2" height="2" fill="#FF312B"/>
<rect x="18" y="4" width="2" height="2" fill="#FF312B"/>
<rect x="16" y="2" width="2" height="2" fill="#FF312B"/>
<rect x="14" y="2" width="2" height="2" fill="#FF312B"/>
<rect x="12" y="2" width="2" height="2" fill="#FF312B"/>
<rect x="10" y="2" width="2" height="2" fill="#FF312B"/>
<rect x="8" y="2" width="2" height="2" fill="#FF312B"/>
<rect x="6" y="4" width="2" height="2" fill="#FF312B"/>
<rect x="4" y="6" width="2" height="2" fill="#FFDA33"/>
<rect x="2" y="8" width="2" height="2" fill="#FFDA33"/>
<rect x="2" y="10" width="2" height="2" fill="#FFDA33"/>
<rect x="2" y="12" width="2" height="2" fill="#FFDA33"/>
<rect x="2" y="14" width="2" height="2" fill="#FFDA33"/>
<rect x="2" y="16" width="2" height="2" fill="#FFDA33"/>
<rect x="2" y="18" width="2" height="2" fill="#3CBB25"/>
<rect x="4" y="18" width="2" height="2" fill="#3CBB25"/>
<rect x="4" y="20" width="2" height="2" fill="#3CBB25"/>
<rect x="6" y="20" width="2" height="2" fill="#3CBB25"/>
<rect x="8" y="20" width="2" height="2" fill="#3CBB25"/>
<rect x="10" y="20" width="2" height="2" fill="#3CBB25"/>
<rect x="12" y="20" width="2" height="2" fill="#3CBB25"/>
<rect x="14" y="20" width="2" height="2" fill="#3CBB25"/>
<rect x="16" y="20" width="2" height="2" fill="#3CBB25"/>
<rect x="18" y="20" width="2" height="2" fill="#3CBB25"/>
<rect x="18" y="18" width="2" height="2" fill="#3CBB25"/>
<rect x="20" y="18" width="2" height="2" fill="#3CBB25"/>
<rect x="20" y="16" width="2" height="2" fill="#56A0E7"/>
<rect x="20" y="14" width="2" height="2" fill="#56A0E7"/>
<rect x="18" y="14" width="2" height="2" fill="#56A0E7"/>
<rect x="18" y="12" width="2" height="2" fill="#56A0E7"/>
<rect x="16" y="12" width="2" height="2" fill="#56A0E7"/>
<rect x="14" y="12" width="2" height="2" fill="#56A0E7"/>
<rect x="12" y="12" width="2" height="2" fill="#56A0E7"/>
<rect x="10" y="12" width="2" height="2" fill="#56A0E7"/>
<rect x="18" y="6" width="2" height="2" fill="#FF312B"/>
<rect x="20" y="6" width="2" height="2" fill="#FF312B"/>
<rect x="14" y="4" width="2" height="2" fill="#FF312B"/>
<rect x="14" y="4" width="2" height="2" fill="#FF312B"/>
<rect x="16" y="4" width="2" height="2" fill="#FF312B"/>
<rect x="12" y="4" width="2" height="2" fill="#FF312B"/>
<rect x="10" y="4" width="2" height="2" fill="#FF312B"/>
<rect x="8" y="4" width="2" height="2" fill="#FF312B"/>
<rect x="6" y="6" width="2" height="2" fill="#FFDA33"/>
<rect x="4" y="10" width="2" height="2" fill="#FFDA33"/>
<rect x="4" y="8" width="2" height="2" fill="#FFDA33"/>
<rect x="4" y="12" width="2" height="2" fill="#FFDA33"/>
<rect x="4" y="14" width="2" height="2" fill="#FFDA33"/>
<rect x="4" y="16" width="2" height="2" fill="#FFDA33"/>
<rect x="6" y="18" width="2" height="2" fill="#3CBB25"/>
<rect x="8" y="18" width="2" height="2" fill="#3CBB25"/>
<rect x="10" y="18" width="2" height="2" fill="#3CBB25"/>
<rect x="12" y="18" width="2" height="2" fill="#3CBB25"/>
<rect x="14" y="18" width="2" height="2" fill="#3CBB25"/>
<rect x="16" y="18" width="2" height="2" fill="#3CBB25"/>
<rect x="18" y="16" width="2" height="2" fill="#56A0E7"/>
<rect x="16" y="14" width="2" height="2" fill="#56A0E7"/>
<rect x="14" y="14" width="2" height="2" fill="#56A0E7"/>
<rect x="12" y="14" width="2" height="2" fill="#56A0E7"/>
<rect x="10" y="14" width="2" height="2" fill="#56A0E7"/>
<rect x="8" y="12" width="2" height="2" fill="#56A0E7"/>
<rect x="10" width="2" height="2" fill="#FF312B"/>
<rect x="8" width="2" height="2" fill="#FF312B"/>
<rect x="6" y="2" width="2" height="2" fill="#FF312B"/>
<rect x="4" y="4" width="2" height="2" fill="#FF312B"/>
<rect x="2" y="6" width="2" height="2" fill="#FFDA33"/>
<rect y="8" width="2" height="2" fill="#FFDA33"/>
<rect y="10" width="2" height="2" fill="#FFDA33"/>
<rect y="12" width="2" height="2" fill="#FFDA33"/>
<rect y="14" width="2" height="2" fill="#FFDA33"/>
<rect y="16" width="2" height="2" fill="#FFDA33"/>
<rect x="6" y="22" width="2" height="2" fill="#3CBB25"/>
<rect x="8" y="22" width="2" height="2" fill="#3CBB25"/>
<rect x="10" y="22" width="2" height="2" fill="#3CBB25"/>
<rect x="12" y="22" width="2" height="2" fill="#3CBB25"/>
<rect x="14" y="22" width="2" height="2" fill="#3CBB25"/>
<rect x="16" y="22" width="2" height="2" fill="#3CBB25"/>
<rect x="18" y="22" width="2" height="2" fill="#3CBB25"/>
<rect x="20" y="20" width="2" height="2" fill="#3CBB25"/>
<rect x="22" y="18" width="2" height="2" fill="#3CBB25"/>
<rect x="22" y="14" width="2" height="2" fill="#56A0E7"/>
<rect x="22" y="16" width="2" height="2" fill="#56A0E7"/>
<rect x="20" y="12" width="2" height="2" fill="#56A0E7"/>
</g>
<defs>
<clipPath id="clip0_1228_83039">
<rect width="24" height="24" fill="white"/>
</clipPath>
</defs>
</svg>
