<svg width="90" height="64" viewBox="0 0 90 64" fill="none" xmlns="http://www.w3.org/2000/svg">
<rect x="68" y="60" width="2" height="2" fill="#607300"/>
<rect x="70" y="60" width="2" height="2" fill="#607300"/>
<rect x="72" y="58" width="2" height="2" fill="#D5FF00"/>
<rect x="72" y="60" width="2" height="2" fill="#607300"/>
<rect x="70" y="58" width="2" height="2" fill="#70AA03"/>
<rect x="68" y="58" width="2" height="2" fill="#70AA03"/>
<rect x="70" y="56" width="2" height="2" fill="#D5FF00"/>
<rect x="68" y="56" width="2" height="2" fill="#70AA03"/>
<rect x="66" y="56" width="2" height="2" fill="#70AA03"/>
<rect x="70" y="54" width="2" height="2" fill="#D5FF00"/>
<rect x="68" y="54" width="2" height="2" fill="#D5FF00"/>
<rect x="66" y="54" width="2" height="2" fill="#607300"/>
<rect x="62" y="50" width="2" height="2" fill="#607300"/>
<rect x="62" y="48" width="2" height="2" fill="#283E00"/>
<rect x="62" y="46" width="2" height="2" fill="#70AA03"/>
<rect x="64" y="46" width="2" height="2" fill="#283E00"/>
<rect x="62" y="44" width="2" height="2" fill="#70AA03"/>
<rect x="64" y="44" width="2" height="2" fill="#283E00"/>
<rect x="64" y="48" width="2" height="2" fill="#607300"/>
<rect x="66" y="46" width="2" height="2" fill="#607300"/>
<rect x="66" y="44" width="2" height="2" fill="#607300"/>
<rect x="58" y="54" width="2" height="2" fill="#607300"/>
<rect x="56" y="54" width="2" height="2" fill="#283E00"/>
<rect x="54" y="54" width="2" height="2" fill="#283E00"/>
<rect x="52" y="54" width="2" height="2" fill="#283E00"/>
<rect x="50" y="54" width="2" height="2" fill="#283E00"/>
<rect x="48" y="54" width="2" height="2" fill="#283E00"/>
<rect x="46" y="54" width="2" height="2" fill="#283E00"/>
<rect x="44" y="54" width="2" height="2" fill="#283E00"/>
<rect x="42" y="54" width="2" height="2" fill="#283E00"/>
<rect x="40" y="54" width="2" height="2" fill="#283E00"/>
<rect x="38" y="54" width="2" height="2" fill="#283E00"/>
<rect x="36" y="54" width="2" height="2" fill="#283E00"/>
<rect x="34" y="54" width="2" height="2" fill="#283E00"/>
<rect x="32" y="54" width="2" height="2" fill="#283E00"/>
<rect width="2" height="2" transform="matrix(-1 0 0 1 76 52)" fill="#607300"/>
<rect x="30" y="54" width="2" height="2" fill="#283E00"/>
<rect width="2" height="2" transform="matrix(-1 0 0 1 78 52)" fill="#D5FF00"/>
<rect x="30" y="56" width="2" height="2" fill="#70AA03"/>
<rect x="28" y="56" width="2" height="2" fill="#283E00"/>
<rect x="27.988" y="54.0121" width="2" height="2" transform="rotate(-0.687262 27.988 54.0121)" fill="#283E00"/>
<rect width="2" height="2" transform="matrix(-1 0 0 1 78 54)" fill="#70AA03"/>
<rect x="26" y="56" width="2" height="2" fill="#283E00"/>
<rect width="2" height="2" transform="matrix(-1 0 0 1 80 54)" fill="#D5FF00"/>
<rect x="30" y="52" width="2" height="2" fill="#283E00"/>
<rect width="2" height="2" transform="matrix(-1 0 0 1 78 50)" fill="#D5FF00"/>
<rect x="32" y="52" width="2" height="2" fill="#70AA03"/>
<rect width="2" height="2" transform="matrix(-1 0 0 1 76 50)" fill="#D5FF00"/>
<rect width="2" height="2" transform="matrix(-1 0 0 1 74 50)" fill="#607300"/>
<rect width="2" height="2" transform="matrix(-1 0 0 1 72 50)" fill="#607300"/>
<rect width="2" height="2" transform="matrix(-1 0 0 1 70 50)" fill="#283E00"/>
<rect width="2" height="2" transform="matrix(-1 0 0 1 72 48)" fill="#283E00"/>
<rect width="2" height="2" transform="matrix(-1 0 0 1 74 48)" fill="#283E00"/>
<rect width="2" height="2" transform="matrix(-1 0 0 1 72 46)" fill="#283E00"/>
<rect width="2" height="2" transform="matrix(-1 0 0 1 74 46)" fill="#283E00"/>
<rect width="2" height="2" transform="matrix(-1 0 0 1 76 46)" fill="#607300"/>
<rect width="2" height="2" transform="matrix(-1 0 0 1 78 46)" fill="#607300"/>
<rect width="2" height="2" transform="matrix(-1 0 0 1 80 46)" fill="#607300"/>
<rect width="2" height="2" transform="matrix(-1 0 0 1 82 46)" fill="#607300"/>
<rect x="10" y="48" width="2" height="2" fill="#D5FF00"/>
<rect x="10" y="50" width="2" height="2" fill="#D5FF00"/>
<rect x="12" y="50" width="2" height="2" fill="#70AA03"/>
<rect x="14" y="50" width="2" height="2" fill="#70AA03"/>
<rect x="10" y="52" width="2" height="2" fill="#70AA03"/>
<rect x="12" y="52" width="2" height="2" fill="#70AA03"/>
<rect x="14" y="52" width="2" height="2" fill="#70AA03"/>
<rect x="10" y="54" width="2" height="2" fill="#70AA03"/>
<rect x="10" y="56" width="2" height="2" fill="#70AA03"/>
<rect x="8" y="48" width="2" height="2" fill="#D5FF00"/>
<rect x="8" y="50" width="2" height="2" fill="#D5FF00"/>
<rect x="8" y="52" width="2" height="2" fill="#D5FF00"/>
<rect x="8" y="54" width="2" height="2" fill="#D5FF00"/>
<rect x="8" y="56" width="2" height="2" fill="#70AA03"/>
<rect x="66" y="52" width="2" height="2" fill="#607300"/>
<rect x="68" y="52" width="2" height="2" fill="#283E00"/>
<rect x="66" y="50" width="2" height="2" fill="#607300"/>
<rect x="68" y="48" width="2" height="2" fill="#283E00"/>
<rect x="68" y="46" width="2" height="2" fill="#283E00"/>
<rect x="68" y="44" width="2" height="2" fill="#283E00"/>
<rect x="66" y="42" width="2" height="2" fill="#283E00"/>
<rect x="66" y="40" width="2" height="2" fill="#70AA03"/>
<rect x="66" y="38" width="2" height="2" fill="#70AA03"/>
<rect x="66" y="36" width="2" height="2" fill="#70AA03"/>
<rect x="66" y="34" width="2" height="2" fill="#70AA03"/>
<rect x="54" y="26" width="2" height="2" fill="#283E00"/>
<rect x="38" y="26" width="2" height="2" fill="#283E00"/>
<rect x="52" y="26" width="2" height="2" fill="#283E00"/>
<rect x="36" y="26" width="2" height="2" fill="#283E00"/>
<rect x="50" y="26" width="2" height="2" fill="#283E00"/>
<rect x="68" y="34" width="2" height="2" fill="#607300"/>
<rect width="2" height="2" transform="matrix(-1 0 0 1 22 30)" fill="#F6FF4C"/>
<rect x="68" y="36" width="2" height="2" fill="#607300"/>
<rect width="2" height="2" transform="matrix(-1 0 0 1 22 32)" fill="#D5FF00"/>
<rect x="68" y="38" width="2" height="2" fill="#607300"/>
<rect width="2" height="2" transform="matrix(-1 0 0 1 22 34)" fill="#D5FF00"/>
<rect width="2" height="2" transform="matrix(-1 0 0 1 20 32)" fill="#D5FF00"/>
<rect x="70" y="34" width="2" height="2" fill="#607300"/>
<rect width="2" height="2" transform="matrix(-1 0 0 1 20 30)" fill="#D5FF00"/>
<rect x="70" y="32" width="2" height="2" fill="#D5FF00"/>
<rect width="2" height="2" transform="matrix(-1 0 0 1 20 28)" fill="#F6FF4C"/>
<rect x="68" y="32" width="2" height="2" fill="#D5FF00"/>
<rect width="2" height="2" transform="matrix(-1 0 0 1 24 32)" fill="#D5FF00"/>
<rect width="2" height="2" transform="matrix(-1 0 0 1 24 30)" fill="#F6FF4C"/>
<rect x="66" y="32" width="2" height="2" fill="#D5FF00"/>
<rect x="64" y="32" width="2" height="2" fill="#D5FF00"/>
<rect x="62" y="30" width="2" height="2" fill="#D5FF00"/>
<rect x="60" y="30" width="2" height="2" fill="#D5FF00"/>
<rect x="58" y="30" width="2" height="2" fill="#D5FF00"/>
<rect x="56" y="30" width="2" height="2" fill="#D5FF00"/>
<rect x="54" y="30" width="2" height="2" fill="#D5FF00"/>
<rect x="52" y="30" width="2" height="2" fill="#D5FF00"/>
<rect x="50" y="30" width="2" height="2" fill="#D5FF00"/>
<rect x="48" y="30" width="2" height="2" fill="#D5FF00"/>
<rect x="46" y="30" width="2" height="2" fill="#D5FF00"/>
<rect x="44" y="30" width="2" height="2" fill="#D5FF00"/>
<rect x="42" y="30" width="2" height="2" fill="#D5FF00"/>
<rect x="40" y="30" width="2" height="2" fill="#D5FF00"/>
<rect x="38" y="30" width="2" height="2" fill="#D5FF00"/>
<rect x="36" y="30" width="2" height="2" fill="#D5FF00"/>
<rect x="34" y="30" width="2" height="2" fill="#D5FF00"/>
<rect x="32" y="30" width="2" height="2" fill="#D5FF00"/>
<rect x="30" y="30" width="2" height="2" fill="#D5FF00"/>
<rect x="26" y="34" width="2" height="2" fill="#70AA03"/>
<rect x="26" y="38" width="2" height="2" fill="#70AA03"/>
<rect x="26" y="42" width="2" height="2" fill="#70AA03"/>
<rect x="26" y="46" width="2" height="2" fill="#70AA03"/>
<rect x="26" y="48" width="2" height="2" fill="#283E00"/>
<rect x="22" y="46" width="2" height="2" fill="#283E00"/>
<rect x="18" y="46" width="2" height="2" fill="#70AA03"/>
<rect x="32" y="50" width="2" height="2" fill="#70AA03"/>
<rect x="28" y="30" width="2" height="2" fill="#D5FF00"/>
<rect x="24" y="34" width="2" height="2" fill="#D5FF00"/>
<rect x="24" y="38" width="2" height="2" fill="#70AA03"/>
<rect x="24" y="42" width="2" height="2" fill="#70AA03"/>
<rect x="24" y="46" width="2" height="2" fill="#70AA03"/>
<rect x="24" y="48" width="2" height="2" fill="#283E00"/>
<rect x="24" y="50" width="2" height="2" fill="#70AA03"/>
<rect x="20" y="46" width="2" height="2" fill="#70AA03"/>
<rect x="16" y="46" width="2" height="2" fill="#70AA03"/>
<rect x="22" y="48" width="2" height="2" fill="#283E00"/>
<rect x="22" y="50" width="2" height="2" fill="#283E00"/>
<rect x="22" y="52" width="2" height="2" fill="#70AA03"/>
<rect x="20" y="54" width="2" height="2" fill="#70AA03"/>
<rect x="20" y="50" width="2" height="2" fill="#283E00"/>
<rect x="20" y="52" width="2" height="2" fill="#70AA03"/>
<rect x="18" y="54" width="2" height="2" fill="#D5FF00"/>
<rect x="26" y="58" width="2" height="2" fill="#D5FF00"/>
<rect x="28" y="58" width="2" height="2" fill="#70AA03"/>
<rect width="2" height="2" transform="matrix(-1 0 0 1 80 56)" fill="#D5FF00"/>
<rect x="18" y="56" width="2" height="2" fill="#D5FF00"/>
<rect x="18" y="58" width="2" height="2" fill="#70AA03"/>
<rect x="18" y="60" width="2" height="2" fill="#70AA03"/>
<rect x="16" y="54" width="2" height="2" fill="#D5FF00"/>
<rect x="24" y="58" width="2" height="2" fill="#D5FF00"/>
<rect width="2" height="2" transform="matrix(-1 0 0 1 82 56)" fill="#D5FF00"/>
<rect x="24" y="56" width="2" height="2" fill="#D5FF00"/>
<rect width="2" height="2" transform="matrix(-1 0 0 1 82 54)" fill="#D5FF00"/>
<rect width="2" height="2" transform="matrix(-1 0 0 1 84 48)" fill="#607300"/>
<rect width="2" height="2" transform="matrix(-1 0 0 1 82 48)" fill="#607300"/>
<rect width="2" height="2" transform="matrix(-1 0 0 1 84 50)" fill="#607300"/>
<rect x="24" y="60" width="2" height="2" fill="#D5FF00"/>
<rect width="2" height="2" transform="matrix(-1 0 0 1 82 58)" fill="#D5FF00"/>
<rect x="24" y="62" width="2" height="2" fill="#70AA03"/>
<rect width="2" height="2" transform="matrix(-1 0 0 1 82 60)" fill="#70AA03"/>
<rect x="26" y="60" width="2" height="2" fill="#D5FF00"/>
<rect x="28" y="60" width="2" height="2" fill="#70AA03"/>
<rect width="2" height="2" transform="matrix(-1 0 0 1 80 58)" fill="#D5FF00"/>
<rect x="26" y="62" width="2" height="2" fill="#70AA03"/>
<rect width="2" height="2" transform="matrix(-1 0 0 1 80 60)" fill="#70AA03"/>
<rect x="16" y="56" width="2" height="2" fill="#D5FF00"/>
<rect x="16" y="58" width="2" height="2" fill="#D5FF00"/>
<rect x="16" y="60" width="2" height="2" fill="#70AA03"/>
<rect x="14" y="44" width="2" height="2" fill="#D5FF00"/>
<rect x="18" y="44" width="2" height="2" fill="#283E00"/>
<rect x="22" y="44" width="2" height="2" fill="#283E00"/>
<rect x="22" y="42" width="2" height="2" fill="#283E00"/>
<rect x="22" y="40" width="2" height="2" fill="#70AA03"/>
<rect x="22" y="38" width="2" height="2" fill="#70AA03"/>
<rect x="22" y="36" width="2" height="2" fill="#70AA03"/>
<rect x="22" y="34" width="2" height="2" fill="#D5FF00"/>
<rect x="12" y="44" width="2" height="2" fill="#D5FF00"/>
<rect x="16" y="44" width="2" height="2" fill="#D5FF00"/>
<rect x="20" y="44" width="2" height="2" fill="#283E00"/>
<rect x="30" y="50" width="2" height="2" fill="#70AA03"/>
<rect x="60" y="28" width="2" height="2" fill="#F6FF4C"/>
<rect x="58" y="28" width="2" height="2" fill="#F6FF4C"/>
<rect x="56" y="28" width="2" height="2" fill="#F6FF4C"/>
<rect x="54" y="28" width="2" height="2" fill="#F6FF4C"/>
<rect x="52" y="28" width="2" height="2" fill="#F6FF4C"/>
<rect x="50" y="28" width="2" height="2" fill="#F6FF4C"/>
<rect x="48" y="28" width="2" height="2" fill="#F6FF4C"/>
<rect x="46" y="28" width="2" height="2" fill="#F6FF4C"/>
<rect x="44" y="28" width="2" height="2" fill="#F6FF4C"/>
<rect x="42" y="28" width="2" height="2" fill="#F6FF4C"/>
<rect x="40" y="28" width="2" height="2" fill="#F6FF4C"/>
<rect x="38" y="28" width="2" height="2" fill="#F6FF4C"/>
<rect x="36" y="28" width="2" height="2" fill="#F6FF4C"/>
<rect x="34" y="28" width="2" height="2" fill="#F6FF4C"/>
<rect x="32" y="28" width="2" height="2" fill="#F6FF4C"/>
<rect x="30" y="28" width="2" height="2" fill="#F6FF4C"/>
<rect x="26" y="32" width="2" height="2" fill="#D5FF00"/>
<rect x="26" y="30" width="2" height="2" fill="#F6FF4C"/>
<rect x="26" y="36" width="2" height="2" fill="#70AA03"/>
<rect x="26" y="40" width="2" height="2" fill="#70AA03"/>
<rect x="26" y="44" width="2" height="2" fill="#70AA03"/>
<rect x="28" y="28" width="2" height="2" fill="#F6FF4C"/>
<rect x="24" y="32" width="2" height="2" fill="#D5FF00"/>
<rect x="24" y="30" width="2" height="2" fill="#F6FF4C"/>
<rect x="24" y="36" width="2" height="2" fill="#70AA03"/>
<rect x="24" y="40" width="2" height="2" fill="#70AA03"/>
<rect x="24" y="44" width="2" height="2" fill="#70AA03"/>
<rect x="64" y="34" width="2" height="2" fill="#70AA03"/>
<rect x="64" y="36" width="2" height="2" fill="#70AA03"/>
<rect x="64" y="38" width="2" height="2" fill="#70AA03"/>
<rect x="52" y="38" width="2" height="2" fill="#70AA03"/>
<rect x="46" y="38" width="2" height="2" fill="#70AA03"/>
<rect x="50" y="38" width="2" height="2" fill="#70AA03"/>
<rect x="44" y="38" width="2" height="2" fill="#D5FF00"/>
<rect x="48" y="38" width="2" height="2" fill="#70AA03"/>
<rect x="48" y="40" width="2" height="2" fill="#70AA03"/>
<rect x="48" y="42" width="2" height="2" fill="#70AA03"/>
<rect x="50" y="42" width="2" height="2" fill="#70AA03"/>
<rect x="50" y="40" width="2" height="2" fill="#70AA03"/>
<rect x="64" y="40" width="2" height="2" fill="#70AA03"/>
<rect x="64" y="42" width="2" height="2" fill="#70AA03"/>
<rect x="62" y="34" width="2" height="2" fill="#70AA03"/>
<rect x="62" y="36" width="2" height="2" fill="#70AA03"/>
<rect x="62" y="38" width="2" height="2" fill="#70AA03"/>
<rect x="62" y="40" width="2" height="2" fill="#70AA03"/>
<rect x="62" y="42" width="2" height="2" fill="#70AA03"/>
<rect width="2" height="2" transform="matrix(-1 0 0 1 18 32)" fill="#D5FF00"/>
<rect x="72" y="34" width="2" height="2" fill="#607300"/>
<rect width="2" height="2" transform="matrix(-1 0 0 1 18 30)" fill="#D5FF00"/>
<rect x="72" y="32" width="2" height="2" fill="#D5FF00"/>
<rect width="2" height="2" transform="matrix(-1 0 0 1 18 28)" fill="#F6FF4C"/>
<rect width="2" height="2" transform="matrix(-1 0 0 1 16 32)" fill="#607300"/>
<rect x="74" y="34" width="2" height="2" fill="#607300"/>
<rect width="2" height="2" transform="matrix(-1 0 0 1 16 30)" fill="#D5FF00"/>
<rect width="2" height="2" transform="matrix(-1 0 0 1 14 30)" fill="#70AA03"/>
<rect x="74" y="32" width="2" height="2" fill="#D5FF00"/>
<rect width="2" height="2" transform="matrix(-1 0 0 1 16 28)" fill="#D5FF00"/>
<rect width="2" height="2" transform="matrix(-1 0 0 1 16 26)" fill="#D5FF00"/>
<rect x="76" y="32" width="2" height="2" fill="#607300"/>
<rect width="2" height="2" transform="matrix(-1 0 0 1 14 28)" fill="#70AA03"/>
<rect x="76" y="30" width="2" height="2" fill="#D5FF00"/>
<rect width="2" height="2" transform="matrix(-1 0 0 1 12 26)" fill="#70AA03"/>
<rect x="76" y="28" width="2" height="2" fill="#D5FF00"/>
<rect width="2" height="2" transform="matrix(-1 0 0 1 12 24)" fill="#D5FF00"/>
<rect x="76" y="26" width="2" height="2" fill="#D5FF00"/>
<rect width="2" height="2" transform="matrix(-1 0 0 1 12 22)" fill="#D5FF00"/>
<rect x="76" y="24" width="2" height="2" fill="#D5FF00"/>
<rect width="2" height="2" transform="matrix(-1 0 0 1 12 20)" fill="#D5FF00"/>
<rect x="76" y="22" width="2" height="2" fill="#D5FF00"/>
<rect width="2" height="2" transform="matrix(-1 0 0 1 12 18)" fill="#D5FF00"/>
<rect x="74" y="30" width="2" height="2" fill="#D5FF00"/>
<rect width="2" height="2" transform="matrix(-1 0 0 1 14 26)" fill="#70AA03"/>
<rect x="74" y="28" width="2" height="2" fill="#D5FF00"/>
<rect width="2" height="2" transform="matrix(-1 0 0 1 14 24)" fill="#D5FF00"/>
<rect x="74" y="26" width="2" height="2" fill="#D5FF00"/>
<rect width="2" height="2" transform="matrix(-1 0 0 1 14 22)" fill="#D5FF00"/>
<rect x="74" y="24" width="2" height="2" fill="#D5FF00"/>
<rect width="2" height="2" transform="matrix(-1 0 0 1 14 20)" fill="#D5FF00"/>
<rect x="72" y="22" width="2" height="2" fill="#D5FF00"/>
<rect width="2" height="2" transform="matrix(-1 0 0 1 16 18)" fill="#70AA03"/>
<rect x="70" y="22" width="2" height="2" fill="#D5FF00"/>
<rect width="2" height="2" transform="matrix(-1 0 0 1 18 18)" fill="#D5FF00"/>
<rect x="68" y="22" width="2" height="2" fill="#D5FF00"/>
<rect width="2" height="2" transform="matrix(-1 0 0 1 20 18)" fill="#D5FF00"/>
<rect x="66" y="22" width="2" height="2" fill="#F6FF4C"/>
<rect width="2" height="2" transform="matrix(-1 0 0 1 22 18)" fill="#F6FF4C"/>
<rect x="68" y="24" width="2" height="2" fill="#70AA03"/>
<rect width="2" height="2" transform="matrix(-1 0 0 1 20 20)" fill="#F6FF4C"/>
<rect x="70" y="24" width="2" height="2" fill="#D5FF00"/>
<rect width="2" height="2" transform="matrix(-1 0 0 1 18 20)" fill="#D5FF00"/>
<rect x="70" y="26" width="2" height="2" fill="#70AA03"/>
<rect width="2" height="2" transform="matrix(-1 0 0 1 18 22)" fill="#D5FF00"/>
<rect x="72" y="24" width="2" height="2" fill="#D5FF00"/>
<rect width="2" height="2" transform="matrix(-1 0 0 1 16 20)" fill="#D5FF00"/>
<rect x="72" y="26" width="2" height="2" fill="#D5FF00"/>
<rect width="2" height="2" transform="matrix(-1 0 0 1 16 22)" fill="#D5FF00"/>
<rect x="72" y="28" width="2" height="2" fill="#70AA03"/>
<rect width="2" height="2" transform="matrix(-1 0 0 1 16 24)" fill="#D5FF00"/>
<rect x="66" y="18" width="2" height="2" fill="#F6FF4C"/>
<rect width="2" height="2" transform="matrix(-1 0 0 1 22 14)" fill="#F6FF4C"/>
<rect x="66" y="14" width="2" height="2" fill="#F6FF4C"/>
<rect width="2" height="2" transform="matrix(-1 0 0 1 22 10)" fill="#F6FF4C"/>
<rect x="68" y="12" width="2" height="2" fill="#D5FF00"/>
<rect width="2" height="2" transform="matrix(-1 0 0 1 20 8)" fill="#D5FF00"/>
<rect x="70" y="12" width="2" height="2" fill="#70AA03"/>
<rect width="2" height="2" transform="matrix(-1 0 0 1 18 8)" fill="#70AA03"/>
<rect x="72" y="14" width="2" height="2" fill="#70AA03"/>
<rect x="84" y="22" width="2" height="2" fill="#70AA03"/>
<rect width="2" height="2" transform="matrix(-1 0 0 1 4 18)" fill="#F6FF4C"/>
<rect width="2" height="2" transform="matrix(-1 0 0 1 4 20)" fill="#F6FF4C"/>
<rect x="82" y="24" width="2" height="2" fill="#70AA03"/>
<rect width="2" height="2" transform="matrix(-1 0 0 1 6 20)" fill="#F6FF4C"/>
<rect x="80" y="24" width="2" height="2" fill="#D5FF00"/>
<rect width="2" height="2" transform="matrix(-1 0 0 1 8 20)" fill="#D5FF00"/>
<rect x="80" y="26" width="2" height="2" fill="#70AA03"/>
<rect width="2" height="2" transform="matrix(-1 0 0 1 8 22)" fill="#F6FF4C"/>
<rect width="2" height="2" transform="matrix(-1 0 0 1 2 18)" fill="#F6FF4C"/>
<rect x="74" y="22" width="2" height="2" fill="#D5FF00"/>
<rect width="2" height="2" transform="matrix(-1 0 0 1 14 18)" fill="#70AA03"/>
<rect x="72" y="20" width="2" height="2" fill="#D5FF00"/>
<rect width="2" height="2" transform="matrix(-1 0 0 1 16 16)" fill="#70AA03"/>
<rect x="70" y="20" width="2" height="2" fill="#D5FF00"/>
<rect width="2" height="2" transform="matrix(-1 0 0 1 18 16)" fill="#70AA03"/>
<rect x="68" y="20" width="2" height="2" fill="#D5FF00"/>
<rect width="2" height="2" transform="matrix(-1 0 0 1 20 16)" fill="#D5FF00"/>
<rect x="68" y="18" width="2" height="2" fill="#D5FF00"/>
<rect width="2" height="2" transform="matrix(-1 0 0 1 20 14)" fill="#D5FF00"/>
<rect width="2" height="2" transform="matrix(-1 0 0 1 16 46)" fill="#D5FF00"/>
<rect width="2" height="2" transform="matrix(-1 0 0 1 16 48)" fill="#D5FF00"/>
<rect width="2" height="2" transform="matrix(-1 0 0 1 14 48)" fill="#D5FF00"/>
<rect width="2" height="2" transform="matrix(-1 0 0 1 14 46)" fill="#D5FF00"/>
<rect x="68" y="16" width="2" height="2" fill="#D5FF00"/>
<rect width="2" height="2" transform="matrix(-1 0 0 1 20 12)" fill="#D5FF00"/>
<rect x="70" y="18" width="2" height="2" fill="#D5FF00"/>
<rect width="2" height="2" transform="matrix(-1 0 0 1 18 14)" fill="#70AA03"/>
<rect x="80" y="22" width="2" height="2" fill="#D5FF00"/>
<rect width="2" height="2" transform="matrix(-1 0 0 1 8 18)" fill="#D5FF00"/>
<rect x="82" y="22" width="2" height="2" fill="#D5FF00"/>
<rect width="2" height="2" transform="matrix(-1 0 0 1 6 18)" fill="#D5FF00"/>
<rect x="82" y="20" width="2" height="2" fill="#D5FF00"/>
<rect width="2" height="2" transform="matrix(-1 0 0 1 6 16)" fill="#D5FF00"/>
<rect x="82" y="18" width="2" height="2" fill="#D5FF00"/>
<rect width="2" height="2" transform="matrix(-1 0 0 1 6 14)" fill="#D5FF00"/>
<rect x="82" y="16" width="2" height="2" fill="#D5FF00"/>
<rect width="2" height="2" transform="matrix(-1 0 0 1 6 12)" fill="#D5FF00"/>
<rect x="82" y="14" width="2" height="2" fill="#D5FF00"/>
<rect width="2" height="2" transform="matrix(-1 0 0 1 6 10)" fill="#D5FF00"/>
<rect x="82" y="12" width="2" height="2" fill="#D5FF00"/>
<rect width="2" height="2" transform="matrix(-1 0 0 1 6 8)" fill="#D5FF00"/>
<rect x="82" y="10" width="2" height="2" fill="#D5FF00"/>
<rect width="2" height="2" transform="matrix(-1 0 0 1 6 6)" fill="#D5FF00"/>
<rect x="80" y="10" width="2" height="2" fill="#D5FF00"/>
<rect width="2" height="2" transform="matrix(-1 0 0 1 8 6)" fill="#70AA03"/>
<rect x="80" y="12" width="2" height="2" fill="#D5FF00"/>
<rect width="2" height="2" transform="matrix(-1 0 0 1 8 8)" fill="#70AA03"/>
<rect x="80" y="14" width="2" height="2" fill="#D5FF00"/>
<rect width="2" height="2" transform="matrix(-1 0 0 1 8 10)" fill="#70AA03"/>
<rect x="80" y="16" width="2" height="2" fill="#D5FF00"/>
<rect width="2" height="2" transform="matrix(-1 0 0 1 8 12)" fill="#D5FF00"/>
<rect x="80" y="18" width="2" height="2" fill="#D5FF00"/>
<rect width="2" height="2" transform="matrix(-1 0 0 1 8 14)" fill="#D5FF00"/>
<rect x="80" y="20" width="2" height="2" fill="#D5FF00"/>
<rect width="2" height="2" transform="matrix(-1 0 0 1 8 16)" fill="#D5FF00"/>
<rect x="78" y="20" width="2" height="2" fill="#D5FF00"/>
<rect width="2" height="2" transform="matrix(-1 0 0 1 10 16)" fill="#D5FF00"/>
<rect x="76" y="20" width="2" height="2" fill="#D5FF00"/>
<rect width="2" height="2" transform="matrix(-1 0 0 1 12 16)" fill="#70AA03"/>
<rect x="74" y="20" width="2" height="2" fill="#D5FF00"/>
<rect width="2" height="2" transform="matrix(-1 0 0 1 14 16)" fill="#70AA03"/>
<rect x="72" y="18" width="2" height="2" fill="#D5FF00"/>
<rect x="62" y="32" width="2" height="2" fill="#D5FF00"/>
<rect x="56" y="32" width="2" height="2" fill="#D5FF00"/>
<rect x="56" y="34" width="2" height="2" fill="#D5FF00"/>
<rect x="56" y="36" width="2" height="2" fill="#D5FF00"/>
<rect x="56" y="38" width="2" height="2" fill="#D5FF00"/>
<rect x="56" y="40" width="2" height="2" fill="#D5FF00"/>
<rect x="56" y="42" width="2" height="2" fill="#D5FF00"/>
<rect x="56" y="44" width="2" height="2" fill="#D5FF00"/>
<rect x="56" y="46" width="2" height="2" fill="#D5FF00"/>
<rect x="56" y="48" width="2" height="2" fill="#D5FF00"/>
<rect x="56" y="50" width="2" height="2" fill="#D5FF00"/>
<rect x="56" y="52" width="2" height="2" fill="#70AA03"/>
<rect x="52" y="32" width="2" height="2" fill="#D5FF00"/>
<rect x="52" y="34" width="2" height="2" fill="#70AA03"/>
<rect x="52" y="36" width="2" height="2" fill="#D5FF00"/>
<rect x="48" y="32" width="2" height="2" fill="#D5FF00"/>
<rect x="48" y="34" width="2" height="2" fill="#70AA03"/>
<rect x="48" y="36" width="2" height="2" fill="#D5FF00"/>
<rect x="44" y="32" width="2" height="2" fill="#D5FF00"/>
<rect x="44" y="34" width="2" height="2" fill="#D5FF00"/>
<rect x="44" y="36" width="2" height="2" fill="#D5FF00"/>
<rect x="40" y="32" width="2" height="2" fill="#D5FF00"/>
<rect x="40" y="34" width="2" height="2" fill="#D5FF00"/>
<rect x="40" y="36" width="2" height="2" fill="#D5FF00"/>
<rect x="40" y="38" width="2" height="2" fill="#D5FF00"/>
<rect x="40" y="40" width="2" height="2" fill="#D5FF00"/>
<rect x="40" y="42" width="2" height="2" fill="#D5FF00"/>
<rect x="36" y="32" width="2" height="2" fill="#D5FF00"/>
<rect x="36" y="34" width="2" height="2" fill="#D5FF00"/>
<rect x="36" y="36" width="2" height="2" fill="#D5FF00"/>
<rect x="36" y="38" width="2" height="2" fill="#D5FF00"/>
<rect x="36" y="40" width="2" height="2" fill="#D5FF00"/>
<rect x="36" y="42" width="2" height="2" fill="#D5FF00"/>
<rect x="32" y="32" width="2" height="2" fill="#D5FF00"/>
<rect x="32" y="34" width="2" height="2" fill="#D5FF00"/>
<rect x="32" y="36" width="2" height="2" fill="#D5FF00"/>
<rect x="32" y="38" width="2" height="2" fill="#D5FF00"/>
<rect x="32" y="40" width="2" height="2" fill="#D5FF00"/>
<rect x="32" y="42" width="2" height="2" fill="#D5FF00"/>
<rect x="32" y="44" width="2" height="2" fill="#D5FF00"/>
<rect x="32" y="46" width="2" height="2" fill="#D5FF00"/>
<rect x="32" y="48" width="2" height="2" fill="#D5FF00"/>
<rect x="28" y="32" width="2" height="2" fill="#70AA03"/>
<rect x="28" y="34" width="2" height="2" fill="#D5FF00"/>
<rect x="28" y="36" width="2" height="2" fill="#D5FF00"/>
<rect x="28" y="38" width="2" height="2" fill="#D5FF00"/>
<rect x="28" y="40" width="2" height="2" fill="#D5FF00"/>
<rect x="28" y="42" width="2" height="2" fill="#D5FF00"/>
<rect x="28" y="44" width="2" height="2" fill="#D5FF00"/>
<rect x="28" y="46" width="2" height="2" fill="#D5FF00"/>
<rect x="28" y="48" width="2" height="2" fill="#70AA03"/>
<rect x="60" y="32" width="2" height="2" fill="#70AA03"/>
<rect x="60" y="34" width="2" height="2" fill="#D5FF00"/>
<rect x="60" y="36" width="2" height="2" fill="#D5FF00"/>
<rect x="60" y="38" width="2" height="2" fill="#D5FF00"/>
<rect x="60" y="40" width="2" height="2" fill="#D5FF00"/>
<rect x="60" y="42" width="2" height="2" fill="#D5FF00"/>
<rect x="60" y="44" width="2" height="2" fill="#70AA03"/>
<rect x="60" y="46" width="2" height="2" fill="#70AA03"/>
<rect x="60" y="48" width="2" height="2" fill="#70AA03"/>
<rect x="60" y="50" width="2" height="2" fill="#70AA03"/>
<rect x="60" y="52" width="2" height="2" fill="#607300"/>
<rect x="58" y="32" width="2" height="2" fill="#D5FF00"/>
<rect x="58" y="34" width="2" height="2" fill="#D5FF00"/>
<rect x="58" y="36" width="2" height="2" fill="#D5FF00"/>
<rect x="58" y="38" width="2" height="2" fill="#D5FF00"/>
<rect x="58" y="40" width="2" height="2" fill="#D5FF00"/>
<rect x="58" y="42" width="2" height="2" fill="#D5FF00"/>
<rect x="58" y="44" width="2" height="2" fill="#D5FF00"/>
<rect x="58" y="46" width="2" height="2" fill="#D5FF00"/>
<rect x="58" y="48" width="2" height="2" fill="#D5FF00"/>
<rect x="58" y="50" width="2" height="2" fill="#70AA03"/>
<rect x="58" y="52" width="2" height="2" fill="#70AA03"/>
<rect x="54" y="32" width="2" height="2" fill="#D5FF00"/>
<rect x="54" y="34" width="2" height="2" fill="#D5FF00"/>
<rect x="54" y="36" width="2" height="2" fill="#D5FF00"/>
<rect x="54" y="38" width="2" height="2" fill="#D5FF00"/>
<rect x="54" y="40" width="2" height="2" fill="#D5FF00"/>
<rect x="52" y="40" width="2" height="2" fill="#D5FF00"/>
<rect x="54" y="42" width="2" height="2" fill="#D5FF00"/>
<rect x="52" y="42" width="2" height="2" fill="#D5FF00"/>
<rect x="52" y="44" width="2" height="2" fill="#D5FF00"/>
<rect x="50" y="44" width="2" height="2" fill="#D5FF00"/>
<rect x="48" y="44" width="2" height="2" fill="#D5FF00"/>
<rect x="46" y="44" width="2" height="2" fill="#D5FF00"/>
<rect x="44" y="44" width="2" height="2" fill="#D5FF00"/>
<rect x="42" y="44" width="2" height="2" fill="#D5FF00"/>
<rect x="40" y="44" width="2" height="2" fill="#D5FF00"/>
<rect x="38" y="44" width="2" height="2" fill="#D5FF00"/>
<rect x="36" y="44" width="2" height="2" fill="#D5FF00"/>
<rect x="34" y="44" width="2" height="2" fill="#D5FF00"/>
<rect x="52" y="46" width="2" height="2" fill="#D5FF00"/>
<rect x="50" y="46" width="2" height="2" fill="#D5FF00"/>
<rect x="48" y="46" width="2" height="2" fill="#D5FF00"/>
<rect x="46" y="46" width="2" height="2" fill="#D5FF00"/>
<rect x="44" y="46" width="2" height="2" fill="#D5FF00"/>
<rect x="42" y="46" width="2" height="2" fill="#D5FF00"/>
<rect x="40" y="46" width="2" height="2" fill="#D5FF00"/>
<rect x="38" y="46" width="2" height="2" fill="#D5FF00"/>
<rect x="36" y="46" width="2" height="2" fill="#D5FF00"/>
<rect x="34" y="46" width="2" height="2" fill="#D5FF00"/>
<rect x="52" y="48" width="2" height="2" fill="#D5FF00"/>
<rect x="50" y="48" width="2" height="2" fill="#D5FF00"/>
<rect x="48" y="48" width="2" height="2" fill="#D5FF00"/>
<rect x="46" y="48" width="2" height="2" fill="#D5FF00"/>
<rect x="44" y="48" width="2" height="2" fill="#D5FF00"/>
<rect x="42" y="48" width="2" height="2" fill="#D5FF00"/>
<rect x="40" y="48" width="2" height="2" fill="#D5FF00"/>
<rect x="38" y="48" width="2" height="2" fill="#D5FF00"/>
<rect x="36" y="48" width="2" height="2" fill="#D5FF00"/>
<rect x="34" y="48" width="2" height="2" fill="#D5FF00"/>
<rect x="52" y="50" width="2" height="2" fill="#D5FF00"/>
<rect x="50" y="50" width="2" height="2" fill="#D5FF00"/>
<rect x="48" y="50" width="2" height="2" fill="#D5FF00"/>
<rect x="46" y="50" width="2" height="2" fill="#D5FF00"/>
<rect x="44" y="50" width="2" height="2" fill="#D5FF00"/>
<rect x="42" y="50" width="2" height="2" fill="#D5FF00"/>
<rect x="40" y="50" width="2" height="2" fill="#D5FF00"/>
<rect x="38" y="50" width="2" height="2" fill="#D5FF00"/>
<rect x="36" y="50" width="2" height="2" fill="#D5FF00"/>
<rect x="34" y="50" width="2" height="2" fill="#D5FF00"/>
<rect x="52" y="52" width="2" height="2" fill="#70AA03"/>
<rect x="50" y="52" width="2" height="2" fill="#70AA03"/>
<rect x="48" y="52" width="2" height="2" fill="#70AA03"/>
<rect x="46" y="52" width="2" height="2" fill="#70AA03"/>
<rect x="44" y="52" width="2" height="2" fill="#70AA03"/>
<rect x="42" y="52" width="2" height="2" fill="#70AA03"/>
<rect x="40" y="52" width="2" height="2" fill="#70AA03"/>
<rect x="38" y="52" width="2" height="2" fill="#70AA03"/>
<rect x="36" y="52" width="2" height="2" fill="#70AA03"/>
<rect x="34" y="52" width="2" height="2" fill="#70AA03"/>
<rect x="54" y="44" width="2" height="2" fill="#D5FF00"/>
<rect x="54" y="46" width="2" height="2" fill="#D5FF00"/>
<rect x="54" y="48" width="2" height="2" fill="#D5FF00"/>
<rect x="54" y="50" width="2" height="2" fill="#D5FF00"/>
<rect x="54" y="52" width="2" height="2" fill="#70AA03"/>
<rect x="50" y="32" width="2" height="2" fill="#D5FF00"/>
<rect x="50" y="34" width="2" height="2" fill="#70AA03"/>
<rect x="50" y="36" width="2" height="2" fill="#D5FF00"/>
<rect x="46" y="32" width="2" height="2" fill="#D5FF00"/>
<rect x="46" y="34" width="2" height="2" fill="#70AA03"/>
<rect x="46" y="36" width="2" height="2" fill="#D5FF00"/>
<rect x="42" y="32" width="2" height="2" fill="#D5FF00"/>
<rect x="42" y="34" width="2" height="2" fill="#D5FF00"/>
<rect x="42" y="36" width="2" height="2" fill="#D5FF00"/>
<rect x="42" y="38" width="2" height="2" fill="#D5FF00"/>
<rect x="42" y="40" width="2" height="2" fill="#D5FF00"/>
<rect x="44" y="40" width="2" height="2" fill="#D5FF00"/>
<rect x="46" y="40" width="2" height="2" fill="#D5FF00"/>
<rect x="42" y="42" width="2" height="2" fill="#D5FF00"/>
<rect x="44" y="42" width="2" height="2" fill="#D5FF00"/>
<rect x="46" y="42" width="2" height="2" fill="#D5FF00"/>
<rect x="38" y="32" width="2" height="2" fill="#D5FF00"/>
<rect x="38" y="34" width="2" height="2" fill="#D5FF00"/>
<rect x="38" y="36" width="2" height="2" fill="#D5FF00"/>
<rect x="38" y="38" width="2" height="2" fill="#D5FF00"/>
<rect x="38" y="40" width="2" height="2" fill="#D5FF00"/>
<rect x="38" y="42" width="2" height="2" fill="#D5FF00"/>
<rect x="34" y="32" width="2" height="2" fill="#D5FF00"/>
<rect x="34" y="34" width="2" height="2" fill="#D5FF00"/>
<rect x="34" y="36" width="2" height="2" fill="#D5FF00"/>
<rect x="34" y="38" width="2" height="2" fill="#D5FF00"/>
<rect x="34" y="40" width="2" height="2" fill="#D5FF00"/>
<rect x="34" y="42" width="2" height="2" fill="#D5FF00"/>
<rect x="29.988" y="32" width="2.02405" height="2" fill="#D5FF00"/>
<rect x="30" y="34" width="2" height="2" fill="#D5FF00"/>
<rect x="30" y="36" width="2" height="2" fill="#D5FF00"/>
<rect x="30" y="38" width="2" height="2" fill="#D5FF00"/>
<rect x="30" y="40" width="2" height="2" fill="#D5FF00"/>
<rect x="30" y="42" width="2" height="2" fill="#D5FF00"/>
<rect x="30" y="44" width="2" height="2" fill="#D5FF00"/>
<rect x="30" y="46" width="2" height="2" fill="#D5FF00"/>
<rect x="30" y="48" width="2" height="2" fill="#70AA03"/>
<rect width="2" height="2" transform="matrix(-1 0 0 1 16 14)" fill="#70AA03"/>
<rect x="70" y="16" width="2" height="2" fill="#D5FF00"/>
<rect width="2" height="2" transform="matrix(-1 0 0 1 18 12)" fill="#70AA03"/>
<rect x="70" y="14" width="2" height="2" fill="#D5FF00"/>
<rect width="2" height="2" transform="matrix(-1 0 0 1 18 10)" fill="#70AA03"/>
<rect x="68" y="14" width="2" height="2" fill="#D5FF00"/>
<rect width="2" height="2" transform="matrix(-1 0 0 1 20 10)" fill="#D5FF00"/>
<rect x="66" y="20" width="2" height="2" fill="#F6FF4C"/>
<rect width="2" height="2" transform="matrix(-1 0 0 1 22 16)" fill="#F6FF4C"/>
<rect x="66" y="16" width="2" height="2" fill="#F6FF4C"/>
<rect width="2" height="2" transform="matrix(-1 0 0 1 22 12)" fill="#F6FF4C"/>
<rect x="66" y="12" width="2" height="2" fill="#F6FF4C"/>
<rect width="2" height="2" transform="matrix(-1 0 0 1 22 8)" fill="#F6FF4C"/>
<rect x="68" y="10" width="2" height="2" fill="#F6FF4C"/>
<rect width="2" height="2" transform="matrix(-1 0 0 1 20 6)" fill="#F6FF4C"/>
<rect width="2" height="2" transform="matrix(-1 0 0 1 20 4)" fill="#F6FF4C"/>
<rect x="70" y="10" width="2" height="2" fill="#D5FF00"/>
<rect x="70" y="8" width="2" height="2" fill="#F6FF4C"/>
<rect x="70" y="6" width="2" height="2" fill="#F6FF4C"/>
<rect x="68" y="8" width="2" height="2" fill="#F6FF4C"/>
<rect width="2" height="2" transform="matrix(-1 0 0 1 18 6)" fill="#70AA03"/>
<rect width="2" height="2" transform="matrix(-1 0 0 1 18 4)" fill="#F6FF4C"/>
<rect width="2" height="2" transform="matrix(-1 0 0 1 18 2)" fill="#F6FF4C"/>
<rect x="84" y="20" width="2" height="2" fill="#70AA03"/>
<rect width="2" height="2" transform="matrix(-1 0 0 1 4 16)" fill="#F6FF4C"/>
<rect x="84" y="18" width="2" height="2" fill="#70AA03"/>
<rect width="2" height="2" transform="matrix(-1 0 0 1 4 14)" fill="#D5FF00"/>
<rect x="84" y="16" width="2" height="2" fill="#70AA03"/>
<rect width="2" height="2" transform="matrix(-1 0 0 1 4 12)" fill="#D5FF00"/>
<rect x="84" y="14" width="2" height="2" fill="#D5FF00"/>
<rect width="2" height="2" transform="matrix(-1 0 0 1 4 10)" fill="#D5FF00"/>
<rect x="84" y="12" width="2" height="2" fill="#D5FF00"/>
<rect width="2" height="2" transform="matrix(-1 0 0 1 4 8)" fill="#D5FF00"/>
<rect x="84" y="10" width="2" height="2" fill="#D5FF00"/>
<rect x="84" y="8" width="2" height="2" fill="#70AA03"/>
<rect width="2" height="2" transform="matrix(-1 0 0 1 4 6)" fill="#F6FF4C"/>
<rect x="80" y="8" width="2" height="2" fill="#D5FF00"/>
<rect width="2" height="2" transform="matrix(-1 0 0 1 8 4)" fill="#D5FF00"/>
<rect x="80" y="6" width="2" height="2" fill="#F6FF4C"/>
<rect width="2" height="2" transform="matrix(-1 0 0 1 8 2)" fill="#F6FF4C"/>
<rect x="78" y="8" width="2" height="2" fill="#70AA03"/>
<rect width="2" height="2" transform="matrix(-1 0 0 1 10 4)" fill="#70AA03"/>
<rect x="78" y="10" width="2" height="2" fill="#70AA03"/>
<rect width="2" height="2" transform="matrix(-1 0 0 1 10 6)" fill="#70AA03"/>
<rect x="78" y="12" width="2" height="2" fill="#70AA03"/>
<rect width="2" height="2" transform="matrix(-1 0 0 1 10 8)" fill="#70AA03"/>
<rect x="78" y="14" width="2" height="2" fill="#70AA03"/>
<rect width="2" height="2" transform="matrix(-1 0 0 1 10 10)" fill="#70AA03"/>
<rect x="78" y="16" width="2" height="2" fill="#70AA03"/>
<rect width="2" height="2" transform="matrix(-1 0 0 1 10 12)" fill="#70AA03"/>
<rect x="78" y="18" width="2" height="2" fill="#70AA03"/>
<rect width="2" height="2" transform="matrix(-1 0 0 1 10 14)" fill="#70AA03"/>
<rect x="76" y="18" width="2" height="2" fill="#607300"/>
<rect width="2" height="2" transform="matrix(-1 0 0 1 12 14)" fill="#70AA03"/>
<rect x="74" y="18" width="2" height="2" fill="#607300"/>
<rect width="2" height="2" transform="matrix(-1 0 0 1 14 14)" fill="#70AA03"/>
<rect x="72" y="16" width="2" height="2" fill="#607300"/>
<rect width="2" height="2" transform="matrix(-1 0 0 1 2 16)" fill="#F6FF4C"/>
<rect x="86" y="18" width="2" height="2" fill="#70AA03"/>
<rect width="2" height="2" transform="matrix(-1 0 0 1 2 14)" fill="#F6FF4C"/>
<rect x="86" y="16" width="2" height="2" fill="#70AA03"/>
<rect width="2" height="2" transform="matrix(-1 0 0 1 2 12)" fill="#F6FF4C"/>
<rect x="86" y="14" width="2" height="2" fill="#70AA03"/>
<rect width="2" height="2" transform="matrix(-1 0 0 1 2 10)" fill="#F6FF4C"/>
<rect x="86" y="12" width="2" height="2" fill="#70AA03"/>
<rect width="2" height="2" transform="matrix(-1 0 0 1 2 8)" fill="#F6FF4C"/>
<rect x="86" y="10" width="2" height="2" fill="#70AA03"/>
<rect width="2" height="2" transform="matrix(-1 0 0 1 2 6)" fill="#F6FF4C"/>
<rect x="82" y="8" width="2" height="2" fill="#D5FF00"/>
<rect width="2" height="2" transform="matrix(-1 0 0 1 6 4)" fill="#F6FF4C"/>
<rect x="82" y="6" width="2" height="2" fill="#F6FF4C"/>
<rect width="2" height="2" transform="matrix(-1 0 0 1 6 2)" fill="#F6FF4C"/>
<rect x="78" y="6" width="2" height="2" fill="#F6FF4C"/>
<rect width="2" height="2" transform="matrix(-1 0 0 1 10 2)" fill="#F6FF4C"/>
<rect width="2" height="2" transform="matrix(-1 0 0 1 10 0)" fill="#F6FF4C"/>
<rect x="78" y="30" width="2" height="2" fill="#607300"/>
<rect width="2" height="2" transform="matrix(-1 0 0 1 10 26)" fill="#F6FF4C"/>
<rect x="78" y="28" width="2" height="2" fill="#607300"/>
<rect width="2" height="2" transform="matrix(-1 0 0 1 10 24)" fill="#F6FF4C"/>
<rect x="78" y="26" width="2" height="2" fill="#70AA03"/>
<rect width="2" height="2" transform="matrix(-1 0 0 1 10 22)" fill="#D5FF00"/>
<rect x="78" y="24" width="2" height="2" fill="#D5FF00"/>
<rect width="2" height="2" transform="matrix(-1 0 0 1 10 20)" fill="#D5FF00"/>
<rect x="78" y="22" width="2" height="2" fill="#D5FF00"/>
<rect width="2" height="2" transform="matrix(-1 0 0 1 10 18)" fill="#D5FF00"/>
<rect x="68" y="40" width="2" height="2" fill="#70AA03"/>
<rect width="2" height="2" transform="matrix(-1 0 0 1 22 36)" fill="#70AA03"/>
<rect width="2" height="2" transform="matrix(-1 0 0 1 20 34)" fill="#283E00"/>
<rect width="2" height="2" transform="matrix(-1 0 0 1 18 34)" fill="#607300"/>
<rect width="2" height="2" transform="matrix(-1 0 0 1 16 34)" fill="#607300"/>
<rect width="2" height="2" transform="matrix(-1 0 0 1 39 24)" fill="#607300"/>
<rect width="2" height="2" transform="matrix(-1 0 0 1 55 24)" fill="#607300"/>
<rect width="2" height="2" transform="matrix(-1 0 0 1 37 24)" fill="#607300"/>
<rect width="2" height="2" transform="matrix(-1 0 0 1 53 24)" fill="#607300"/>
<rect width="2" height="2" transform="matrix(-1 0 0 1 35 22)" fill="#607300"/>
<rect width="2" height="2" transform="matrix(-1 0 0 1 51 22)" fill="#607300"/>
<rect width="2" height="2" transform="matrix(-1 0 0 1 37 22)" fill="#607300"/>
<rect width="2" height="2" transform="matrix(-1 0 0 1 53 22)" fill="#607300"/>
<rect width="2" height="2" transform="matrix(-1 0 0 1 39 22)" fill="#222716"/>
<rect width="2" height="2" transform="matrix(-1 0 0 1 55 22)" fill="#222716"/>
<rect width="2" height="2" transform="matrix(-1 0 0 1 41 22)" fill="#222716"/>
<rect width="2" height="2" transform="matrix(-1 0 0 1 57 22)" fill="#222716"/>
<rect width="2" height="2" transform="matrix(-1 0 0 1 35 20)" fill="#607300"/>
<rect width="2" height="2" transform="matrix(-1 0 0 1 51 20)" fill="#607300"/>
<rect width="2" height="2" transform="matrix(-1 0 0 1 37 20)" fill="#222716"/>
<rect width="2" height="2" transform="matrix(-1 0 0 1 53 20)" fill="#222716"/>
<rect width="2" height="2" transform="matrix(-1 0 0 1 39 20)" fill="#DECDBF"/>
<rect width="2" height="2" transform="matrix(-1 0 0 1 55 20)" fill="#DECDBF"/>
<rect width="2" height="2" transform="matrix(-1 0 0 1 41 20)" fill="#DECDBF"/>
<rect width="2" height="2" transform="matrix(-1 0 0 1 57 20)" fill="#DECDBF"/>
<rect width="2" height="2" transform="matrix(-1 0 0 1 35 18)" fill="#607300"/>
<rect width="2" height="2" transform="matrix(-1 0 0 1 51 18)" fill="#607300"/>
<rect width="2" height="2" transform="matrix(-1 0 0 1 37 18)" fill="#222716"/>
<rect width="2" height="2" transform="matrix(-1 0 0 1 53 18)" fill="#222716"/>
<rect width="2" height="2" transform="matrix(-1 0 0 1 39 18)" fill="#DECDBF"/>
<rect width="2" height="2" transform="matrix(-1 0 0 1 55 18)" fill="#DECDBF"/>
<rect width="2" height="2" transform="matrix(-1 0 0 1 41 18)" fill="white"/>
<rect width="2" height="2" transform="matrix(-1 0 0 1 57 18)" fill="white"/>
<rect width="2" height="2" transform="matrix(-1 0 0 1 35 16)" fill="#607300"/>
<rect width="2" height="2" transform="matrix(-1 0 0 1 51 16)" fill="#607300"/>
<rect width="2" height="2" transform="matrix(-1 0 0 1 37 16)" fill="#222716"/>
<rect width="2" height="2" transform="matrix(-1 0 0 1 53 16)" fill="#222716"/>
<rect width="2" height="2" transform="matrix(-1 0 0 1 39 16)" fill="white"/>
<rect width="2" height="2" transform="matrix(-1 0 0 1 55 16)" fill="white"/>
<rect width="2" height="2" transform="matrix(-1 0 0 1 41 16)" fill="white"/>
<rect width="2" height="2" transform="matrix(-1 0 0 1 57 16)" fill="white"/>
<rect width="2" height="2" transform="matrix(-1 0 0 1 43 16)" fill="#222716"/>
<rect width="2" height="2" transform="matrix(-1 0 0 1 59 16)" fill="#222716"/>
<rect width="2" height="2" transform="matrix(-1 0 0 1 41 14)" fill="#70AA03"/>
<rect width="2" height="2" transform="matrix(-1 0 0 1 57 14)" fill="#70AA03"/>
<rect width="2" height="2" transform="matrix(-1 0 0 1 39 14)" fill="#70AA03"/>
<rect width="2" height="2" transform="matrix(-1 0 0 1 55 14)" fill="#70AA03"/>
<rect width="2" height="2" transform="matrix(-1 0 0 1 37 14)" fill="#D5FF00"/>
<rect width="2" height="2" transform="matrix(-1 0 0 1 53 14)" fill="#D5FF00"/>
<rect width="2" height="2" transform="matrix(-1 0 0 1 43 18)" fill="#222716"/>
<rect width="2" height="2" transform="matrix(-1 0 0 1 59 18)" fill="#222716"/>
<rect width="2" height="2" transform="matrix(-1 0 0 1 43 20)" fill="#222716"/>
<rect width="2" height="2" transform="matrix(-1 0 0 1 59 20)" fill="#222716"/>
<rect width="2" height="2" transform="matrix(-1 0 0 1 43 22)" fill="#607300"/>
<rect width="2" height="2" transform="matrix(-1 0 0 1 59 22)" fill="#607300"/>
<rect width="2" height="2" transform="matrix(-1 0 0 1 41 24)" fill="#607300"/>
<rect width="2" height="2" transform="matrix(-1 0 0 1 57 24)" fill="#607300"/>
<rect x="68" y="42" width="2" height="2" fill="#70AA03"/>
<rect width="2" height="2" transform="matrix(-1 0 0 1 22 38)" fill="#70AA03"/>
<rect x="70" y="40" width="2" height="2" fill="#607300"/>
<rect width="2" height="2" transform="matrix(-1 0 0 1 20 36)" fill="#607300"/>
<rect x="70" y="44" width="2" height="2" fill="#70AA03"/>
<rect width="2" height="2" transform="matrix(-1 0 0 1 22 40)" fill="#70AA03"/>
<rect x="72" y="44" width="2" height="2" fill="#70AA03"/>
<rect width="2" height="2" transform="matrix(-1 0 0 1 20 40)" fill="#283E00"/>
<rect x="70" y="42" width="2" height="2" fill="#70AA03"/>
<rect width="2" height="2" transform="matrix(-1 0 0 1 20 38)" fill="#607300"/>
<rect x="74" y="44" width="2" height="2" fill="#70AA03"/>
<rect x="72" y="42" width="2" height="2" fill="#607300"/>
<rect x="76" y="44" width="2" height="2" fill="#D5FF00"/>
<rect x="74" y="42" width="2" height="2" fill="#D5FF00"/>
<rect x="78" y="44" width="2" height="2" fill="#D5FF00"/>
<rect x="76" y="42" width="2" height="2" fill="#D5FF00"/>
<rect x="80" y="44" width="2" height="2" fill="#D5FF00"/>
<rect x="78" y="42" width="2" height="2" fill="#D5FF00"/>
<rect x="82.0049" y="43.9951" width="2" height="2" transform="rotate(0.279067 82.0049 43.9951)" fill="#D5FF00"/>
<rect x="82" y="46" width="2" height="2" fill="#D5FF00"/>
<rect x="84" y="48" width="2" height="2" fill="#D5FF00"/>
<rect x="84" y="50" width="2" height="2" fill="#607300"/>
<rect x="86" y="52" width="2" height="2" fill="#607300"/>
<rect x="86" y="54" width="2" height="2" fill="#607300"/>
<rect x="88" y="54" width="2" height="2" fill="#70AA03"/>
<rect x="88" y="56" width="2" height="2" fill="#607300"/>
<rect x="88" y="52" width="2" height="2" fill="#D5FF00"/>
<rect x="86" y="50" width="2" height="2" fill="#D5FF00"/>
<rect x="86" y="48" width="2" height="2" fill="#D5FF00"/>
<rect x="84" y="46" width="2" height="2" fill="#D5FF00"/>
</svg>
